<svg xmlns="http://www.w3.org/2000/svg" xmlns:xlink="http://www.w3.org/1999/xlink" width="139.28" height="36" viewBox="0 0 139.28 36">
  <defs>
    <linearGradient id="linear-gradient" x1="0.5" x2="0.5" y2="1" gradientUnits="objectBoundingBox">
      <stop offset="0" stop-color="#6cbbf5"/>
      <stop offset="1" stop-color="#5b139a"/>
    </linearGradient>
  </defs>
  <g id="Group_41" data-name="Group 41" transform="translate(0 -0.345)">
    <rect id="Rectangle_23533" data-name="Rectangle 23533" width="36" height="36" rx="8" transform="translate(0 0.345)" fill="url(#linear-gradient)"/>
    <g id="Group_33" data-name="Group 33" transform="translate(8.363 4.503)">
      <path id="Path_30" data-name="Path 30" d="M53.421,84.4c4.578.3,6.962.162,8.027-.172.366-.115.541-.235.578-.355.031-.1-.048-.238-.2-.391a7.021,7.021,0,0,0-2.12-1.229c-5.784-2.6.983-2.22,6.02-1.841,1.963.147,3.664.295,4.255.267a46.45,46.45,0,0,1-5.03-.017,47,47,0,0,0-6.431.049c-.3.049-.65-.018-.257.289a7.365,7.365,0,0,0,1.618.822,7.453,7.453,0,0,1,2.279,1.336.87.87,0,0,1,.3.854c-.191.62-1.954.811-3.875.811a26.839,26.839,0,0,1-5.173-.422Zm2.691-11.867A38.436,38.436,0,0,1,64.522,61.6c-3.631,2.041-8.934,8.135-10.363,12.789-1.6-3.463-2.051-7.792-.094-9.98a3.526,3.526,0,0,1,1.14,2.207,4.015,4.015,0,0,0-.667-2.68,9.593,9.593,0,0,1,2.383-2.324,8.583,8.583,0,0,1,.553,2.44,5.916,5.916,0,0,0,.093-2.881c4.487-2.911,11.818-4.742,15.012-3.05,0,0-7.8,2.243-8.113,8.864A8.951,8.951,0,0,0,64.8,70c2.181,7.833-6.762,6.03-8.119,5.716l-.106-.025-.065-.016c-1.868.821-2.674,6.848-3.067,8.7-.045-6.354,1.124-9.1,2.665-11.841Z" transform="translate(-52.772 -57.474)" fill="#fff"/>
    </g>
    <g id="Group_37" data-name="Group 37" transform="translate(46.939 9.857)">
      <g id="Group_35" data-name="Group 35" transform="translate(0 0)">
        <path id="Path_31" data-name="Path 31" d="M172.808,58.741h3.055l3.335,8.83h.141l3.336-8.83h3.072v12.57h-2.352v-6.2l.141-2.089h-.141l-3.2,8.286h-1.843l-3.213-8.286H175l.141,2.089v6.2h-2.335Z" transform="translate(-172.808 -58.407)" fill="#fff"/>
        <path id="Path_32" data-name="Path 32" d="M221.931,58.741h2.37v12.57h-2.37Z" transform="translate(-206.131 -58.407)" fill="#fff"/>
        <path id="Path_33" data-name="Path 33" d="M240.1,71a4.787,4.787,0,0,1-2.914-.93,4.892,4.892,0,0,1-1.773-2.634l2.23-.877a3.284,3.284,0,0,0,.9,1.6,2.21,2.21,0,0,0,1.58.6,2.292,2.292,0,0,0,1.352-.395,1.267,1.267,0,0,0,.562-1.1,1.432,1.432,0,0,0-.535-1.15,6.937,6.937,0,0,0-1.905-.957l-.772-.281a5.332,5.332,0,0,1-2.072-1.29,2.98,2.98,0,0,1-.86-2.186,3.291,3.291,0,0,1,.509-1.791,3.512,3.512,0,0,1,1.44-1.273,4.648,4.648,0,0,1,2.107-.465,3.969,3.969,0,0,1,4.038,2.669l-2.089.878a2.1,2.1,0,0,0-.676-.974,1.893,1.893,0,0,0-1.238-.395,2.128,2.128,0,0,0-1.273.36,1.107,1.107,0,0,0-.5.939,1.2,1.2,0,0,0,.474.957,5.048,5.048,0,0,0,1.563.764l.79.264a6.1,6.1,0,0,1,2.5,1.483,3.766,3.766,0,0,1,.237,4.494,3.871,3.871,0,0,1-1.624,1.273A5.183,5.183,0,0,1,240.1,71Z" transform="translate(-215.277 -57.815)" fill="#fff"/>
        <path id="Path_34" data-name="Path 34" d="M270.846,58.741h2.721l4.722,12.57h-2.616l-1.053-3h-4.81l-1.053,3h-2.616Zm3,7.391-1.106-3.16-.457-1.51h-.141l-.456,1.51-1.123,3.16Z" transform="translate(-236.122 -58.407)" fill="#fff"/>
        <path id="Path_35" data-name="Path 35" d="M324.155,78.626a4.747,4.747,0,0,1-2.405-.615,4.4,4.4,0,0,1-1.677-1.694,5.111,5.111,0,0,1-.009-4.81,4.6,4.6,0,0,1,1.65-1.746,4.393,4.393,0,0,1,2.352-.65,4.574,4.574,0,0,1,2.388.6,3.892,3.892,0,0,1,1.519,1.632,5.076,5.076,0,0,1,.518,2.3,5.466,5.466,0,0,1-.052.773h-6.724a2.532,2.532,0,0,0,.851,1.624,2.482,2.482,0,0,0,1.624.553,2.6,2.6,0,0,0,1.361-.342,2.53,2.53,0,0,0,.9-.922l1.861.913A4.488,4.488,0,0,1,324.155,78.626Zm2.124-5.846a1.776,1.776,0,0,0-.307-.834,2.146,2.146,0,0,0-.755-.685,2.269,2.269,0,0,0-1.132-.272,2.156,2.156,0,0,0-1.414.483,2.71,2.71,0,0,0-.851,1.308Z" transform="translate(-272.296 -65.442)" fill="#fff"/>
        <path id="Path_36" data-name="Path 36" d="M355.921,71a4.784,4.784,0,0,1-2.914-.93,4.89,4.89,0,0,1-1.773-2.634l2.23-.877a3.287,3.287,0,0,0,.9,1.6,2.211,2.211,0,0,0,1.58.6,2.289,2.289,0,0,0,1.352-.395,1.267,1.267,0,0,0,.562-1.1,1.431,1.431,0,0,0-.536-1.15,6.929,6.929,0,0,0-1.9-.957l-.772-.281a5.338,5.338,0,0,1-2.072-1.29,2.979,2.979,0,0,1-.86-2.186,3.286,3.286,0,0,1,.509-1.791,3.507,3.507,0,0,1,1.439-1.273,4.647,4.647,0,0,1,2.107-.465,3.969,3.969,0,0,1,4.038,2.669l-2.089.878a2.1,2.1,0,0,0-.676-.974,1.891,1.891,0,0,0-1.238-.395,2.128,2.128,0,0,0-1.273.36,1.106,1.106,0,0,0-.5.939,1.2,1.2,0,0,0,.474.957,5.048,5.048,0,0,0,1.563.764l.79.264a6.1,6.1,0,0,1,2.5,1.483,3.766,3.766,0,0,1,.237,4.494,3.867,3.867,0,0,1-1.624,1.273A5.185,5.185,0,0,1,355.921,71Z" transform="translate(-293.846 -57.815)" fill="#fff"/>
        <path id="Path_37" data-name="Path 37" d="M387.119,60.232a1.408,1.408,0,0,1-1.045.439,1.5,1.5,0,0,1-1.492-1.492,1.408,1.408,0,0,1,.439-1.045,1.451,1.451,0,0,1,1.053-.43,1.468,1.468,0,0,1,1.475,1.475A1.451,1.451,0,0,1,387.119,60.232Zm-2.2,1.422h2.3v8.953h-2.3Z" transform="translate(-316.468 -57.704)" fill="#fff"/>
        <path id="Path_38" data-name="Path 38" d="M403.008,82.418a4.917,4.917,0,0,1-2.827-.764,3.78,3.78,0,0,1-1.51-1.835l2.159-.877a2.31,2.31,0,0,0,2.177,1.439,2.287,2.287,0,0,0,1.729-.667,2.63,2.63,0,0,0,.641-1.9v-.7h-.141a2.725,2.725,0,0,1-1.106.913,3.69,3.69,0,0,1-1.563.316,3.96,3.96,0,0,1-2.063-.57,4.212,4.212,0,0,1-1.536-1.615,5.39,5.39,0,0,1,0-4.863,4.209,4.209,0,0,1,1.536-1.615,3.957,3.957,0,0,1,2.063-.571,3.69,3.69,0,0,1,1.563.316,2.723,2.723,0,0,1,1.106.913h.141v-.948h2.212v8.339a5.229,5.229,0,0,1-.562,2.493,3.926,3.926,0,0,1-1.6,1.624A4.949,4.949,0,0,1,403.008,82.418Zm.035-6.162a2.263,2.263,0,0,0,1.65-.676,2.885,2.885,0,0,0,.009-3.722,2.418,2.418,0,0,0-3.326.009,2.871,2.871,0,0,0,0,3.722A2.3,2.3,0,0,0,403.043,76.256Z" transform="translate(-325.835 -65.442)" fill="#fff"/>
        <path id="Path_39" data-name="Path 39" d="M433.978,69.392h2.159v1.124h.141a2.823,2.823,0,0,1,1.141-1.027,3.457,3.457,0,0,1,1.6-.378,3.06,3.06,0,0,1,2.458.983,3.994,3.994,0,0,1,.843,2.686v5.565h-2.3V73.061a1.893,1.893,0,0,0-.439-1.334,1.591,1.591,0,0,0-1.229-.474,1.822,1.822,0,0,0-1.5.72,2.819,2.819,0,0,0-.57,1.808v4.564h-2.3Z" transform="translate(-349.976 -65.442)" fill="#fff"/>
      </g>
    </g>
  </g>
</svg>
